<?xml version="1.0" encoding="utf-8"?>
<!-- Generator: Adobe Illustrator 27.6.1, SVG Export Plug-In . SVG Version: 6.00 Build 0)  -->
<svg version="1.1" id="Camada_1" xmlns="http://www.w3.org/2000/svg" xmlns:xlink="http://www.w3.org/1999/xlink" x="0px" y="0px"
	 viewBox="0 0 467.4 201.4" style="enable-background:new 0 0 467.4 201.4;" xml:space="preserve">
<style type="text/css">
	.st0{fill-rule:evenodd;clip-rule:evenodd;fill:#00400D;}
	.st1{fill-rule:evenodd;clip-rule:evenodd;fill:#FF8000;}
	.st2{fill:#FF8000;}
</style>
<g>
	<g>
		<g>
			<g>
				<g>
					<g>
						<g>
							<g>
								<polygon class="st0" points="159.1,65.8 150.8,116.9 174.4,116.9 182.6,65.8 								"/>
							</g>
						</g>
						<g>
							<g>
								<path class="st0" d="M267,65.8c0.3,2.9,1.2,5.3,2.5,7.5c2.4,4,5.9,7.3,9.9,10.7c1.3,1,2.6,2,3.4,3.2c1,1.2,1.4,2.7,1.1,4.7
									c-0.6,3.7-4.6,5.6-7.9,5.6c-6,0-10.9-4.7-13.4-9.4l-4.3,26.4c5.2,2.2,11.1,3.5,17.2,3.5c16.5,0,29.9-12.5,32.4-28.2
									c1-6.4,0.3-10.8-1.9-14.6c-1.9-3.5-4.8-6.3-8.8-9.4H267z"/>
							</g>
						</g>
						<g>
							<g>
								<polygon class="st0" points="318,116.9 341.5,116.9 349.8,65.8 326.2,65.8 								"/>
							</g>
						</g>
						<g>
							<g>
								<path class="st0" d="M298.3,32.7c-14.7,0-23.7,8-28.1,16.9h96.2l2.8-16.9H298.3z"/>
							</g>
						</g>
						<g>
							<g>
								<path class="st0" d="M255.9,49.7c-2.2-13.2-14.4-17-31-17H202l-2.8,16.9L255.9,49.7z"/>
							</g>
						</g>
						<g>
							<g>
								<path class="st0" d="M254.4,65.8h-23.9h-10.1h-23.8l-8.3,51.1h23.3l5.7-35.2l0.3,0l7.3,35.2h25.6l-11.8-35.2
									C246.8,78.8,251.9,72.9,254.4,65.8"/>
							</g>
						</g>
						<g>
							<g>
								<path class="st0" d="M237.4,139c1.8,15.1-13.7,18.8-21.5,19c-22,0.4-56.9-11.6-89-33.3c-4.6-3.1-9-6.3-13.1-9.4l5.6-30.6
									h22.3l3.1-18.9l-22.3,0.1l2.6-16.2l22.3-0.1l2.8-16.9h-47L92.7,97C69.7,74.1,59.4,51.5,68,36.3c4.5-8,12.6-9.7,31.2-8
									c-22.8-9.2-53.2-10.5-61.3,1.6C25,49.1,49.2,93.8,109.9,131.4c54.2,33.5,101.4,42.8,121.2,31.4c2.4-1.4,4.5-3.7,5.6-5.3
									C239.2,153.5,240.8,145.8,237.4,139"/>
							</g>
						</g>
					</g>
					<g>
						<g>
							<g>
								<polygon class="st1" points="188,32.6 185.2,49.6 161.7,49.6 164.5,32.6 								"/>
							</g>
						</g>
					</g>
				</g>
			</g>
		</g>
	</g>
	<g>
		<path class="st2" d="M284.6,180h-8.1l1.5-15c0.4-4.6,1.1-9.9,2.1-16.1l-8.6,27.1h-8l-1.6-27c-0.4,5.5-1,11-1.9,16.2l-2.5,14.8
			h-8.2l7.8-37.9h10.2l1.2,26.5l8-26.5h10.9L284.6,180z"/>
		<path class="st2" d="M315.8,142.1l-1.8,6.2h-11.6l-1.3,9.5h10.2l-0.9,6h-10.2l-1.4,10h12.5l-0.9,6.2h-20.9l5.3-37.9H315.8z"/>
		<path class="st2" d="M349,180h-8.1l1.5-15c0.4-4.6,1.1-9.9,2.1-16.1l-8.6,27.1h-8l-1.6-27c-0.4,5.5-1,11-1.9,16.2l-2.5,14.8h-8.2
			l7.8-37.9h10.2l1.2,26.5l8-26.5h10.9L349,180z"/>
		<path class="st2" d="M381.5,167.6c0,3.8-1.4,6.8-4.1,9c-2.8,2.2-6.9,3.3-12.4,3.3h-11.1l5.3-37.9h10.4c4.1,0,7.3,0.7,9.6,2.1
			c2.3,1.4,3.4,3.6,3.4,6.4c0,2.5-0.8,4.6-2.3,6.1c-1.5,1.6-3.5,2.6-5.8,3.2C379.2,160.9,381.5,163.5,381.5,167.6z M372.9,167.1
			c0-1.4-0.4-2.5-1.3-3.1c-0.8-0.6-2.1-1-3.7-1h-3.3l-1.5,10.7h2.7C370.6,173.7,372.9,171.5,372.9,167.1z M372.6,155.8
			c1-1,1.4-2.5,1.4-4.3c0-1.2-0.4-2-1.1-2.5c-0.7-0.5-1.8-0.8-3.3-0.8h-2.9l-1.3,9.2h2.7C370.1,157.3,371.6,156.8,372.6,155.8z"/>
		<path class="st2" d="M410.4,142.1l-1.8,6.2H397l-1.3,9.5h10.2l-0.9,6h-10.2l-1.4,10H406L405,180h-20.9l5.3-37.9H410.4z"/>
		<path class="st2" d="M430.9,163.8l6.1,16.2h-8.9l-5-14.6h-3.1l-2,14.6h-8.4l5.3-37.9h10.7c4.3,0,7.6,0.9,9.8,2.6
			c2.2,1.7,3.3,4.2,3.3,7.3C438.7,157.4,436.1,161.4,430.9,163.8z M420.9,159.4h2.8c2.2,0,3.8-0.7,4.8-2.1c1-1.4,1.5-3.1,1.5-5
			c0-1.5-0.4-2.5-1.2-3.2c-0.8-0.7-2-1-3.7-1h-2.6L420.9,159.4z"/>
	</g>
</g>
</svg>
